<?xml version="1.0" encoding="UTF-8"?>
<svg version="1.1" viewBox="0 0 2048 1054" width="1280" height="1280" xmlns="http://www.w3.org/2000/svg">
<path transform="translate(0)" d="m0 0h2048v1054h-2048z" fill="#FBFBFB"/>
<path transform="translate(1013,97)" d="m0 0h22l32 2 30 4 30 6 30 9 25 9 23 10 31 16 21 13 16 11 12 9 10 8 14 12 15 14 4 4h2l10-15 12-19 17-33 6-12 2 1 10 34 13 40 18 64 13 52 9 45 7 43 3 25 2 35v53l-2 28-4 31-5 26-6 24-10 30-10 24-11 23-13 23-12 19-12 16-10 13-9 11-12 14-20 20-8 7-14 12-17 13-16 11-17 11-23 13-32 15-24 9-25 8-34 8-32 5-31 3h-41l-37-4-38-7-31-8-29-10-33-15-20-10-21-13-22-15-16-12-10-8v-2l9 3 4 1h12l9-2 10-6 6-7 4-7 1-4v-19l-4-10-9-10-10-5-4-1h-17l-12 5-7 6-5 8-3 10v12l4 11 3 6-1 2-31-31-8-10-12-14-13-18-15-23-14-25-11-22-12-30-8-25-7-29-5-27-4-34-1-18v-14l2-35 4-33 6-29 8-30 7-20 10-24 12-25 9-17 15-24 13-18 11-14 9-10 7-8 14-15 10-10 8-7 15-13 16-12 17-12 18-11 24-13 16-8 24-10 36-12 18-5 31-6 25-3z" fill="#75B246"/>
<path transform="translate(1370,192)" d="m0 0h2l19 61 10 36 12 48 9 45 6 38 4 41 1 17v56l-3 33-5 30-7 28-8 23-9 21-10 19-12 19-11 14-11 12-15 15-17 13-19 12-17 9-25 10-21 7-30 7-32 5-30 3-41 2h-73l-12-1-77-2h-24l-31 1-31 3-10 2-4-1 8-4 50-17 61-19 39-12 31-11 30-13 22-11 27-16 12-8 14-10 13-10 14-11 11-10 8-7 15-14 12-12 7-8 11-12 9-11 14-18 12-17 11-17 10-17 8-14 12-26 9-23 12-36 1-7h-2l-1 5-9 21-8 16-11 19-16 23-13 17-11 13-12 14-35 35-11 9-11 10-17 13-12 9-17 12-19 12-19 11-22 12-30 14-29 11-33 11-43 12-64 16-53 12-34 7-18-10-10-8-9-8-11-14-9-15-7-15-6-18-5-26-1-8v-34l4-26 5-20 8-22 8-17 8-14 12-17 11-13 9-10 10-9 14-11 16-11 17-10 19-9 24-9 27-7 29-5 17-2 95-6 35-4 31-6 25-7 26-9 27-12 20-10 17-10 19-12 18-13 16-13 11-10 8-7 14-14 7-8 13-16 16-24z" fill="#FCFCFC"/>
</svg>
